<?xml version="1.0" standalone="no"?>
<!DOCTYPE svg PUBLIC "-//W3C//DTD SVG 1.1//EN" "http://www.w3.org/Graphics/SVG/1.1/DTD/svg11.dtd">
<svg t="1502716599972" class="icon" style="" viewBox="0 0 1024 1024" version="1.1" xmlns="http://www.w3.org/2000/svg" p-id="17396" xmlns:xlink="http://www.w3.org/1999/xlink" width="200" height="200"><defs>
  <style type="text/css"></style></defs><path d="M409.112702 95.852068 109.463064 95.852068c-24.820292 0-44.946678 20.136619-44.946678 44.955888l0 299.620985c0 24.819269 20.126386 44.955888 44.946678 44.955888l299.649638 0c24.789593 0 44.945655-20.136619 44.945655-44.955888L454.058356 140.807956C454.058356 115.988688 433.902294 95.852068 409.112702 95.852068z" p-id="17397" fill="#DC78ED"></path><path d="M869.771383 556.522006 570.111512 556.522006c-24.820292 0-44.936445 20.116153-44.936445 44.935422l0 299.640428c0 24.820292 20.116153 44.936445 44.936445 44.936445l299.659871 0c24.799826 0 44.936445-20.116153 44.936445-44.936445L914.707828 601.457428C914.707828 576.638159 894.571209 556.522006 869.771383 556.522006z" p-id="17398" fill="#DC78ED"></path><path d="M937.535743 210.564693 695.371354 82.722026c-20.035312-10.588149-44.87607-2.902096-55.483662 17.113773L512.024559 342.049307c-10.567683 20.076244-2.891863 44.877093 17.174148 55.505152l242.174622 127.822201c20.055778 10.588149 44.935422 2.902096 55.523571-17.134239l127.823224-242.173598C965.318506 245.992577 957.641663 221.152842 937.535743 210.564693z" p-id="17399" fill="#DC78ED"></path><path d="M409.112702 556.522006 109.463064 556.522006c-24.820292 0-44.946678 20.116153-44.946678 44.935422l0 299.640428c0 24.820292 20.126386 44.936445 44.946678 44.936445l299.649638 0c24.789593 0 44.945655-20.116153 44.945655-44.936445L454.058356 601.457428C454.058356 576.638159 433.902294 556.522006 409.112702 556.522006z" p-id="17400" fill="#DC78ED">

</path>
</svg>
