<?xml version="1.0" standalone="no"?><!DOCTYPE svg PUBLIC "-//W3C//DTD SVG 1.1//EN" "http://www.w3.org/Graphics/SVG/1.1/DTD/svg11.dtd"><svg t="1502716109915" class="icon" style="" viewBox="0 0 1024 1024" version="1.1" xmlns="http://www.w3.org/2000/svg" p-id="13613" xmlns:xlink="http://www.w3.org/1999/xlink" width="200" height="200"><defs><style type="text/css"></style></defs><path d="M511.999488 64.303538c118.234845 0 214.115566 95.862301 214.115566 214.115566 0 118.234845-95.880721 214.115566-214.115566 214.115566-118.272707 0-214.115566-95.880721-214.115566-214.115566C297.883923 160.164816 393.726781 64.303538 511.999488 64.303538z" p-id="13614" fill="#1296db"></path><path d="M511.999488 492.534669l97.324606 38.930661-38.929638 58.394968 38.929638 194.650235-97.324606 97.325629-97.324606-97.325629 38.929638-194.650235-38.929638-58.394968L511.999488 492.534669c-350.371856 0-428.232155 175.185928-428.232155 175.185928l0 291.975864 175.185928 0L258.953262 706.650235l38.929638 0 0 253.046227 428.232155 0L726.115054 706.650235l38.930661 0 0 253.046227 175.184905 0L940.23062 667.720597C940.23062 667.720597 862.370321 492.534669 511.999488 492.534669z" p-id="13615" fill="#1296db"></path><path d="M453.603497 531.465331l38.930661 58.394968L453.603497 784.510534l58.394968 58.394968 58.394968-58.394968-38.930661-194.650235 38.930661-58.394968-58.394968 0L453.603497 531.465331z" p-id="13616" fill="#1296db"></path></svg>