<?xml version="1.0" standalone="no"?><!DOCTYPE svg PUBLIC "-//W3C//DTD SVG 1.1//EN"
  "http://www.w3.org/Graphics/SVG/1.1/DTD/svg11.dtd">
<svg t="1502793790991" class="icon" style="" viewBox="0 0 1024 1024" version="1.1" xmlns="http://www.w3.org/2000/svg"
     p-id="999" xmlns:xlink="http://www.w3.org/1999/xlink" width="200" height="200">
  <defs>
    <style type="text/css"></style>
  </defs>
  <path
    d="M467.399111 887.466667l21.731556 19.911111a34.816 34.816 0 0 0 45.738666 0l21.731556-19.911111c300.885333-273.408 382.065778-374.897778 382.065778-516.551111 0-129.422222-96.711111-228.693333-221.866667-228.693334-68.551111 0-138.012444 33.336889-182.840889 87.836445L512 256.682667l-21.959111-26.624C445.155556 175.559111 375.751111 142.222222 307.2 142.222222c-125.155556 0-221.866667 99.271111-221.866667 228.693334 0 141.653333 81.180444 243.143111 382.065778 516.551111zM28.444444 370.915556C28.444444 210.432 150.186667 85.333333 307.2 85.333333c75.093333 0 150.016 31.516444 204.8 84.764445 54.784-53.248 129.706667-84.764444 204.8-84.764445 157.013333 0 278.755556 125.098667 278.755556 285.582223 0 165.148444-86.186667 272.839111-400.554667 558.535111l-21.617778 19.854222a91.648 91.648 0 0 1-122.766222 0l-21.504-19.797333C114.631111 643.754667 28.444444 536.007111 28.444444 370.858667z"
    fill="#FF5555" p-id="1000"></path>
</svg>
