<?xml version="1.0" standalone="no"?><!DOCTYPE svg PUBLIC "-//W3C//DTD SVG 1.1//EN" "http://www.w3.org/Graphics/SVG/1.1/DTD/svg11.dtd"><svg t="1503989016832" class="icon" style="" viewBox="0 0 1024 1024" version="1.1" xmlns="http://www.w3.org/2000/svg" p-id="4451" xmlns:xlink="http://www.w3.org/1999/xlink" width="200" height="200"><defs><style type="text/css"></style></defs><path d="M969.788398 715.358934l-1.374992-14.498917-0.827995-2.742985c-0.380998-0.656996-9.253947-16.588906-25.204857-21.987875l-2.397986-1.880989h-1.87699c-13.060926-4.976972-27.626843-5.28697-40.909767-0.861995-7.308958-14.228919-20.581883-22.222874-30.058829-24.63886-12.31793-5.638968-31.269822-6.627962-48.218726-0.356998-2.519986 0.774996-4.208976 1.579991-5.899967 2.354986-0.446997 0.203999-0.894995 0.447997-1.472991 0.651997a98.54044 98.54044 0 0 0-17.962898-12.051932c-13.911921-5.158971-26.894847-3.726979-35.708797-2.772984v-65.12363c0-24.399861-13.843921-44.211749-35.3198-51.399708-7.704956-3.276981-16.106908-4.867972-24.56586-4.648973-9.925944 0-16.532906 1.69799-24.222862 4.501974-22.718871 9.160948-35.739797 27.983841-35.739797 51.547707v156.228112c-4.528974-0.952995-8.649951-0.952995-11.675934-0.952994-7.819956 0-15.89091 1.492992-23.710865 4.357975-22.304873 7.453958-36.183794 27.265845-36.183794 51.634706V880.294997l1.493991 25.684854c3.130982 18.709894 9.228948 27.325845 28.366839 52.087704l48.382725 58.408668c3.315981 3.099982 7.938955 7.341958 15.345913 7.341958 4.819973 0 10.884938 0 17.612899-4.267976 10.431941-7.452958 12.423929-21.400878 4.448975-31.153823a4.974972 4.974972 0 0 0-0.239998-0.285998l-47.769729-57.756672c-18.659894-22.431873-19.36489-23.298868-19.36489-58.408668v-90.600485c0-4.857972 2.329987-8.620951 6.921961-10.379941a14.346918 14.346918 0 0 1 10.245942 0.300998c3.222982 1.192993 6.155965 3.247982 6.155965 10.078943v78.787552c0.016 12.092931 10.51394 21.885876 23.448866 21.875876 12.913927-0.016 23.384867-9.798944 23.394867-21.875876V571.418752c0-4.889972 2.333987-8.707951 6.956961-10.46694 1.374992-0.626996 4.310975-0.805995 8.519951-0.392998l1.690991 0.661996c3.892978 1.458992 6.192965 5.27697 6.192965 10.170942v174.576008c0 12.092931 10.48194 21.891876 23.417866 21.891876 12.933926 0 23.425867-9.798944 23.425867-21.891876v-53.846694c0-4.894972 2.290987-8.71295 6.696962-10.384941 1.499991-0.687996 4.657974-0.830995 8.83995-0.412997l1.563991 0.621996c3.894978 1.462992 6.218965 5.25097 6.218965 10.145942v53.846694c0 12.081931 10.47894 21.880876 23.407867 21.880876 12.925927 0 23.407867-9.798944 23.407867-21.880876v-47.315731c0-4.083977 1.655991-6.948961 5.608968-9.573945 2.017989-0.116999 3.767979-0.534997 5.23597-0.866995a15.960909 15.960909 0 0 1 5.997966-0.325998l2.104988 0.830995c5.964966 1.854989 7.214959 6.413964 7.214959 9.936943v47.315731c0 12.071931 10.46894 21.859876 23.388867 21.859876 12.917927 0 23.388867-9.787944 23.388867-21.859876v-19.688888c0-4.685973 3.51198-8.85995 6.892961-10.44094 1.78299-0.835995 5.841967-0.631996 8.997949 0.147999l2.013988 0.473997c3.44498 1.641991 5.483969 5.25197 5.483969 9.818944l0.255999 181.881967-24.151863 89.818489v3.909978c0 10.262942 8.386952 19.806887 19.30489 21.804876 1.472992 0.214999 2.966983 0.326998 4.466975 0.326998 11.097937 0.162999 20.983881-6.505963 24.315862-16.405907l24.026863-92.327475V715.358934h0.001zM248.541497 182.597962h518.146055v60.588656H248.541497v-60.588656z m-1.75599 121.743308h518.146055v60.527656H246.785507v-60.527656z m0 121.114312h518.146055v60.527656H246.785507v-60.527656z m0 121.083312h259.103528v60.530656H246.785507v-60.530656z" fill="#38BA72" p-id="4452"></path><path d="M118.959234 60.558656h777.244582v540.275929h64.778632V60.558656C960.981448 27.111846 931.976613 0 896.202816 0H118.959234C83.196437 0.018 54.211602 27.124846 54.211602 60.558656V908.364837c0 33.38281 28.976835 60.474656 64.746632 60.474657H465.270266V908.364837H118.959234V60.558656z" fill="#38BA72" p-id="4453"></path></svg>