<?xml version="1.0" standalone="no"?><!DOCTYPE svg PUBLIC "-//W3C//DTD SVG 1.1//EN" "http://www.w3.org/Graphics/SVG/1.1/DTD/svg11.dtd"><svg t="1502715473359" class="icon" style="" viewBox="0 0 1024 1024" version="1.1" xmlns="http://www.w3.org/2000/svg" p-id="10411" xmlns:xlink="http://www.w3.org/1999/xlink" width="200" height="200"><defs><style type="text/css"></style></defs><path d="M511.991814 47.853891c-255.268848 0-464.136899 208.868051-464.1369 464.144062 0 255.280104 208.868051 464.148156 464.1369 464.148156 255.284197 0 464.152249-208.868051 464.152248-464.148156 0-255.276011-208.868051-464.144062-464.152248-464.144062z m46.422285 789.04685h-92.829222v-92.830245h92.829222v92.830245z m97.472986-357.392759l-41.780569 41.770335c-37.132712 32.496112-55.692417 60.34232-55.692417 129.965004h-92.829222V628.036783c0-51.058886 18.560728-97.475032 55.692417-129.962957l55.69651-60.340273c18.571984-13.922081 27.857465-37.126572 27.857464-64.976874 0-51.061956-41.780569-92.831268-92.840478-92.831268-51.04456 0-92.825129 41.768289-92.825128 92.831268H326.33644c0-102.116749 83.553974-185.66356 185.653327-185.66356 102.114702 0 185.6697 83.546811 185.6697 185.66356 0.002047 41.772382-18.569938 78.905094-41.772382 106.751303z" p-id="10412" fill="#f4ea2a"></path></svg>