<?xml version="1.0" standalone="no"?><!DOCTYPE svg PUBLIC "-//W3C//DTD SVG 1.1//EN" "http://www.w3.org/Graphics/SVG/1.1/DTD/svg11.dtd"><svg t="1502714954349" class="icon" style="" viewBox="0 0 1024 1024" version="1.1" xmlns="http://www.w3.org/2000/svg" p-id="7319" xmlns:xlink="http://www.w3.org/1999/xlink" width="200" height="200"><defs><style type="text/css"></style></defs><path d="M851.689059 154.995655 799.122531 154.995655C778.284134 154.995655 761.546198 170.85088 761.546198 190.321095 761.546198 209.79131 778.284134 225.646531 798.988087 225.646531L840.597656 225.963638 840.194332 950.039981 178.138381 949.659455 178.474485 225.646531 219.68073 225.646531C240.317463 225.646531 257.122619 209.79131 257.122619 190.321095 257.122619 170.85088 240.317463 154.995655 219.68073 154.995655L166.979758 154.995655C131.823369 154.995655 103.254604 182.012958 103.254604 215.182086L103.254604 960.50443C103.254604 993.736977 131.823369 1020.690857 166.979758 1020.690857L851.689059 1020.690857C886.778228 1020.690857 915.414213 993.736977 915.414213 960.50443L915.414213 215.182086C915.414213 182.012958 886.778228 154.995655 851.689059 154.995655L851.689059 154.995655ZM325.01545 275.368512 693.653367 275.368512C712.004597 275.368512 728.944196 267.821428 739.901159 254.6933 750.858119 241.565176 754.488032 224.314694 749.917032 207.317895L736.338466 156.264073C728.876976 127.724673 698.49325 105.337097 667.302882 105.337097L617.559616 105.337097 604.787697 56.820114C597.057327 27.836765 567.345808 5.956555 535.684892 5.956555L482.983925 5.956555C451.323009 5.956555 421.61149 27.836765 413.94834 56.820114L401.109201 105.337097 351.365935 105.337097C320.175567 105.337097 289.791845 127.724673 282.330355 156.200653L268.751785 207.317895C264.248005 224.314694 267.877918 241.628596 278.767662 254.75672 289.657401 267.884847 306.529777 275.368512 325.01545 275.368512L325.01545 275.368512ZM354.256422 176.051393 403.999687 176.051393C435.190056 176.051393 465.506562 153.727238 473.035272 125.187834L485.874411 76.670851 532.592746 76.353748 545.633545 125.060995C553.162259 153.663818 583.478761 176.051393 614.60191 176.051393L664.345175 176.051393 672.142765 204.654217 346.794932 203.766321 354.256422 176.051393 354.256422 176.051393ZM693.653367 353.756736 325.01545 353.756736C304.311497 353.756736 287.573561 369.611962 287.573561 389.082176 287.573561 408.552391 304.378717 424.407613 325.01545 424.407613L693.653367 424.407613C714.35732 424.407613 731.095256 408.552391 731.095256 389.082176 731.095256 369.548538 714.35732 353.756736 693.653367 353.756736L693.653367 353.756736ZM693.653367 453.137279 325.01545 453.137279C304.311497 453.137279 287.573561 468.992501 287.573561 488.526135 287.573561 507.99635 304.378717 523.851575 325.01545 523.851575L693.653367 523.851575C714.35732 523.851575 731.095256 507.99635 731.095256 488.526135 731.095256 468.992501 714.35732 453.137279 693.653367 453.137279L693.653367 453.137279ZM693.653367 552.517818 325.01545 552.517818C304.311497 552.517818 287.573561 568.373043 287.573561 587.906678 287.573561 607.503732 304.378717 623.232114 325.01545 623.232114L693.653367 623.232114C714.35732 623.232114 731.095256 607.503732 731.095256 587.906678 731.095256 568.373043 714.35732 552.517818 693.653367 552.517818L693.653367 552.517818ZM693.653367 651.96178 325.01545 651.96178C304.311497 651.96178 287.573561 667.817002 287.573561 687.35064 287.573561 706.884274 304.378717 722.612656 325.01545 722.612656L693.653367 722.612656C714.35732 722.612656 731.095256 706.820855 731.095256 687.287216 731.095256 667.753582 714.35732 651.96178 693.653367 651.96178L693.653367 651.96178ZM693.653367 751.278899 325.01545 751.278899C304.311497 751.278899 287.573561 767.070701 287.573561 786.731179 287.573561 806.264813 304.378717 822.056619 325.01545 822.056619L693.653367 822.056619C714.35732 822.056619 731.095256 806.264813 731.095256 786.731179 731.095256 767.070701 714.35732 751.278899 693.653367 751.278899L693.653367 751.278899Z" fill="#4E9EF8" p-id="7320"></path></svg>