<?xml version="1.0" standalone="no"?><!DOCTYPE svg PUBLIC "-//W3C//DTD SVG 1.1//EN"
  "http://www.w3.org/Graphics/SVG/1.1/DTD/svg11.dtd">
<svg t="1502715266819" class="icon" style="" viewBox="0 0 1024 1024" version="1.1" xmlns="http://www.w3.org/2000/svg"
     p-id="9540" xmlns:xlink="http://www.w3.org/1999/xlink" width="200" height="200">
  <defs>
    <style type="text/css"></style>
  </defs>
  <path
    d="M73.1136 816.1536c0 0 240.1792-128 279.3728-143.2064s112-28.8 184.8064 24.8064 169.6 29.5936 185.6 29.5936 22.4 12.0064 20.8128 19.2-12.2112 24.4736-40.0128 34.4064c-44.8 16-146.4064 1.6128-167.1936-13.5936-7.3728-5.376-14.4128 26.3936 16.7936 35.9936 37.4784 11.5456 170.3936 34.4064 290.4064-56.8064 92.8-59.4688 128 2.4064 100.8128 25.6s-205.5936 161.2544-326.4 149.4272-212.7872-47.0272-248.8064-45.4144-180.8128 26.3936-210.4064 26.3936S56.1408 832.9472 73.1136 816.1536z"
    p-id="9541" fill="#F87787"></path>
  <path
    d="M535.1424 569.7536c-97.3312 0-178.6624-44.416-199.4496-103.8592-3.3536 9.6-5.2992 19.5584-5.2992 29.8496 0 73.856 91.6736 133.7088 204.7488 133.7088 113.0752 0 204.7488-59.8528 204.7488-133.7088 0-10.2656-1.9456-20.2496-5.2992-29.8496C713.7792 525.3632 632.4736 569.7536 535.1424 569.7536z"
    p-id="9542" fill="#F87787"></path>
  <path
    d="M535.1424 406.1952c-97.3312 0-178.6624-44.416-199.4496-103.8592-3.3536 9.6-5.2992 19.5584-5.2992 29.8496 0 73.856 91.6736 133.7088 204.7488 133.7088 113.0752 0 204.7488-59.8528 204.7488-133.7088 0-10.2656-1.9456-20.2496-5.2992-29.8496C713.7792 361.8048 632.4736 406.1952 535.1424 406.1952z"
    p-id="9543" fill="#F87787"></path>
  <path
    d="M535.1424 487.9872c-97.3312 0-178.6624-44.416-199.4496-103.8592-3.3536 9.6-5.2992 19.5584-5.2992 29.8496 0 73.856 91.6736 133.7088 204.7488 133.7088 113.0752 0 204.7488-59.8528 204.7488-133.7088 0-10.2656-1.9456-20.2496-5.2992-29.8496C713.7792 443.5712 632.4736 487.9872 535.1424 487.9872z"
    p-id="9544" fill="#F87787"></path>
  <path d="M330.3936 250.4192a7.998 5.223 0 1 0 409.4976 0 7.998 5.223 0 1 0-409.4976 0Z" p-id="9545"
        fill="#F87787"></path>
</svg>
