<?xml version="1.0" standalone="no"?><!DOCTYPE svg PUBLIC "-//W3C//DTD SVG 1.1//EN" "http://www.w3.org/Graphics/SVG/1.1/DTD/svg11.dtd"><svg t="1502714728381" class="icon" style="" viewBox="0 0 1025 1024" version="1.1" xmlns="http://www.w3.org/2000/svg" p-id="6488" xmlns:xlink="http://www.w3.org/1999/xlink" width="200.1953125" height="200"><defs><style type="text/css"></style></defs><path d="M292.35424 268.8l16 16c3.2 3.2 6.4 3.2 9.6 3.2 108.8 38.4 281.6 41.6 384 0 6.4-3.2 9.6-3.2 16-6.4 25.6-25.6 51.2-51.2 64-86.4 6.4-16 6.4-22.4 12.8-38.4 6.4-48 0-76.8-28.8-99.2-25.6-16-51.2-25.6-80-25.6-19.2 0-35.2 3.2-54.4 12.8h-3.2s-3.2 0-3.2-3.2C593.15424 12.8 551.55424 0 513.15424 0c-38.4 0-80 12.8-108.8 41.6-3.2 0-3.2 3.2-6.4 3.2h-3.2c-16-6.4-32-9.6-51.2-9.6-9.6 0-19.2 0-25.6 3.2-51.2 6.4-92.8 48-86.4 102.4 6.4 48 25.6 92.8 60.8 128zM221.95424 1024h-16-3.2 19.2z m784-393.6c-35.2-128-108.8-227.2-224-300.8-147.2 73.6-358.4 76.8-540.8 0C103.55424 416 13.95424 560 1.15424 723.2c-3.2 51.2 0 102.4 12.8 153.6 19.2 76.8 108.8 137.6 192 144h620.8c67.2 0 115.2-35.2 153.6-86.4 19.2-25.6 28.8-57.6 32-89.6 16-70.4 16-144-6.4-214.4zM637.95424 736c19.2 0 32 12.8 32 32s-12.8 32-32 32h-96v64c0 19.2-12.8 32-32 32s-32-12.8-32-32v-64h-96c-19.2 0-32-12.8-32-32s12.8-32 32-32h96v-64h-96c-19.2 0-32-12.8-32-32s12.8-32 32-32h60.8l-70.4-70.4c-12.8-12.8-12.8-32 0-44.8 12.8-12.8 32-12.8 44.8 0l89.6 89.6 89.6-89.6c12.8-12.8 32-12.8 44.8 0 12.8 12.8 12.8 32 0 44.8L573.95424 608h64c19.2 0 32 12.8 32 32s-12.8 32-32 32h-96v64h96z" p-id="6489" fill="#F09228"></path></svg>