<?xml version="1.0" standalone="no"?><!DOCTYPE svg PUBLIC "-//W3C//DTD SVG 1.1//EN" "http://www.w3.org/Graphics/SVG/1.1/DTD/svg11.dtd"><svg t="1503278975944" class="icon" style="" viewBox="0 0 1024 1024" version="1.1" xmlns="http://www.w3.org/2000/svg" p-id="4121" xmlns:xlink="http://www.w3.org/1999/xlink" width="200" height="200"><defs><style type="text/css"></style></defs><path d="M587.911412 938.614307c-71.225181 4.51585-154.852834 0-154.852834 0s-342.673523-7.544837-342.673523-270.043342 270.706445-431.66944 270.706445-431.66944h296.554136s275.966239 202.618721 275.966239 436.531168c0.001023 233.939053-345.700463 267.439028-345.700463 265.181614z m66.254983-742.304269H369.220644L268.509918 86.817298s74.835406 22.169929 120.875998 22.169929c46.01194 0 124.619252-22.886243 124.619252-22.886243s72.845075 22.886243 118.884645 22.886243c45.985334 0 124.646881-23.563672 124.646881-23.563672L654.166395 196.310038zM468.709543 785.008884h85.012186v-76.137051h113.62178v-61.632709H553.720705v-33.525558H667.342486v-61.659315h-80.096223l95.266737-176.053691H589.346087L527.712355 494.884181c-7.064906 13.893428-12.511965 27.016307-16.309454 39.343053-3.26844-11.397584-8.68787-24.439622-16.36369-39.343053l-60.465116-118.883621h-93.087095l94.042863 176.053691H356.574626v61.659315h112.134917v33.525558H356.574626v61.632709h112.134917v76.137051z" fill="#d81e06" p-id="4122"></path></svg>
