<?xml version="1.0" standalone="no"?><!DOCTYPE svg PUBLIC "-//W3C//DTD SVG 1.1//EN"
  "http://www.w3.org/Graphics/SVG/1.1/DTD/svg11.dtd">
<svg t="1502770524036" class="icon" style="" viewBox="0 0 1024 1024" version="1.1" xmlns="http://www.w3.org/2000/svg"
     p-id="5582" xmlns:xlink="http://www.w3.org/1999/xlink" width="200" height="200">
  <defs>
    <style type="text/css"></style>
  </defs>
  <path
    d="M480 64C214.912 64 0 278.912 0 544 0 809.088 214.912 1024 480 1024c265.088 0 480-214.912 480-480C960 278.912 745.088 64 480 64zM565.12 713.024c12.48 12.48 12.48 32.768 0 45.248-6.272 6.272-14.464 9.344-22.656 9.344s-16.384-3.136-22.656-9.344L328.32 566.656c-12.48-12.48-12.48-32.768 0-45.248l192.768-192.832c12.48-12.48 32.768-12.48 45.248 0s12.48 32.768 0 45.248L396.224 544.064 565.12 713.024z"
    p-id="5583" fill="rgba(40,40,40,0.5)"></path>
</svg>
