<?xml version="1.0" standalone="no"?><!DOCTYPE svg PUBLIC "-//W3C//DTD SVG 1.1//EN" "http://www.w3.org/Graphics/SVG/1.1/DTD/svg11.dtd"><svg t="1504237467337" class="icon" style="" viewBox="0 0 1024 1024" version="1.1" xmlns="http://www.w3.org/2000/svg" p-id="12775" xmlns:xlink="http://www.w3.org/1999/xlink" width="200" height="200"><defs><style type="text/css"></style></defs><path d="M659.770487 512.333663a36.534172 36.534172 0 0 0 36.549513-36.541843c0-20.173184-16.337978-36.549513-36.549513-36.549513h-110.883476v-1.49573l135.444135-141.469244c13.921798-14.61597 13.703191-37.753768-0.916614-51.67173-14.546936-13.894951-37.496809-13.381034-51.491476 1.273288L515.885064 367.834607l-122.87233-122.611536a36.511161 36.511161 0 0 0-51.675565 0.072869c-14.251625 14.293813-14.945798 37.42394-0.659656 51.675566l135.114307 135.478651v6.788315H367.546966c-20.173184 0-36.549513 16.37633-36.549513 36.549513s16.37633 36.545678 36.549513 36.545678h108.252525v73.099026H367.543131c-20.173184 0-36.549513 16.330307-36.549513 36.541843 0 20.2077 16.37633 36.549513 36.549513 36.549513h108.252524v108.651386c0 20.211536 16.372494 36.545678 36.541843 36.545678 20.173184 0 36.549513-16.337978 36.549513-36.545678v-108.651386h110.887311c20.2077 0 36.541843-16.341813 36.541843-36.549513a36.511161 36.511161 0 0 0-36.541843-36.541843h-110.887311v-73.099026h110.887311z" p-id="12776" fill="#1296db"></path><path d="M1023.313498 485.794037v25.435087h-72.42403c0 0.36818 0.015341 0.73636 0.015341 1.108374 0 241.809738-196.692375 438.528959-438.498277 438.567311-241.579625 0.034517-438.632509-196.991521-438.628674-438.571146 0-241.825079 196.734562-438.555805 438.55964-438.555805h0.433378V0.690337l-0.00767-0.00767C230.457528 0.452554 0.721019 230.027985 0.690337 512.276135c-0.030682 282.309513 229.345318 511.72003 511.654832 511.72003 282.140764 0 511.654831-229.517903 511.654831-511.658667 0-8.905348-0.230112-17.757004-0.682667-26.543461z" p-id="12777" fill="#1296db"></path><path d="M987.308584 208.658217h-269.193108a36.687581 36.687581 0 0 1-36.691416-36.68758 36.687581 36.687581 0 0 1 36.68758-36.691416h269.193109A36.687581 36.687581 0 0 1 1024 171.970637c0 20.261393-16.426187 36.687581-36.687581 36.68758z" p-id="12778" fill="#1296db"></path><path d="M816.020614 305.884524V36.691416a36.687581 36.687581 0 0 1 73.375161 0v269.193108a36.687581 36.687581 0 0 1-36.68758 36.687581c-20.261393 0-36.687581-16.422352-36.687581-36.687581zM525.308165 73.728h-12.541124V0.690337h12.541124a36.518831 36.518831 0 0 1 36.514996 36.518832c0 20.165513-16.349483 36.518831-36.518831 36.518831zM987.105318 474.135011a36.212015 36.212015 0 0 0-36.21585 36.212015v0.882098h72.42403v-0.882098a36.212015 36.212015 0 0 0-36.212015-36.212015z" p-id="12779" fill="#1296db"></path></svg>