<?xml version="1.0" standalone="no"?><!DOCTYPE svg PUBLIC "-//W3C//DTD SVG 1.1//EN" "http://www.w3.org/Graphics/SVG/1.1/DTD/svg11.dtd"><svg t="1504237149890" class="icon" style="" viewBox="0 0 1024 1024" version="1.1" xmlns="http://www.w3.org/2000/svg" p-id="9618" xmlns:xlink="http://www.w3.org/1999/xlink" width="200" height="200"><defs><style type="text/css"></style></defs><path d="M736.0512 838.2464c-75.0592 60.416-164.7616 89.7024-259.1744 89.7024-229.888 0-416.3584-186.4704-416.3584-416.3584s186.368-416.4608 416.3584-416.4608c220.4672 0 401.7152 171.8272 414.0032 389.9392v7.0656h53.3504v-7.0656c-2.3552-53.3504-14.6432-106.7008-36.352-157.184C883.8144 272.1792 849.8176 221.184 806.4 177.7664 762.88 134.3488 711.9872 100.352 656.1792 76.288 598.1184 52.1216 537.7024 39.936 472.064 39.936c-62.7712 0-126.0544 12.288-184.1152 36.352-55.7056 24.064-106.7008 58.0608-150.1184 101.4784s-77.4144 94.4128-101.4784 150.1184c-24.064 58.0608-36.352 118.4768-36.352 184.1152 0 65.1264 12.288 126.0544 36.352 184.1152 24.064 55.7056 58.0608 106.7008 101.4784 150.1184 43.4176 43.4176 94.4128 77.4144 150.1184 101.4784C346.0096 971.776 406.4256 984.064 472.064 984.064s126.0544-12.288 184.1152-36.352C709.5296 923.648 760.5248 892.0064 801.5872 850.944l12.288-12.288h-77.9264v-0.4096z" p-id="9619" fill="#1296db"></path><path d="M626.9952 538.0096c14.6432 0 26.4192-12.288 26.4192-26.4192s-12.288-26.4192-26.4192-26.4192h-118.4768v-14.6432s0-2.3552 2.3552-2.3552L626.9952 344.3712c9.9328-9.9328 9.9328-26.4192 0-38.7072-4.7104-4.7104-12.288-7.0656-19.3536-7.0656-7.0656 0-14.6432 2.3552-19.3536 7.0656l-104.3456 113.7664-104.3456-113.7664c-4.7104-4.7104-12.288-7.0656-19.3536-7.0656-7.0656 0-14.6432 2.3552-19.3536 7.0656-9.9328 9.9328-9.9328 26.4192 0 38.7072l113.7664 123.6992s0 2.3552 2.3552 2.3552v14.6432h-118.4768c-14.6432 0-26.4192 12.288-26.4192 26.4192s12.288 26.4192 26.4192 26.4192H457.0112v31.6416h-118.4768c-14.6432 0-26.4192 12.288-26.4192 26.4192s12.288 26.4192 26.4192 26.4192H457.0112v79.7696c0 14.6432 12.288 26.4192 26.4192 26.4192 14.6432 0 26.4192-12.288 26.4192-26.4192v-79.7696h118.4768c14.6432 0 26.4192-12.288 26.4192-26.4192s-12.288-26.4192-26.4192-26.4192h-118.4768v-31.6416l117.1456 0.1024z m394.6496 118.8864c0-2.3552-2.3552-2.3552-2.3552-4.7104 0 0 0-2.3552-2.3552-2.3552L917.8112 543.1296c-4.7104-4.7104-12.288-7.0656-16.9984-7.0656-7.0656 0-12.288 2.3552-16.9984 7.0656-9.9328 9.9328-9.9328 26.4192 0 36.352l58.0608 62.7712H719.0528c-14.6432 0-24.064 12.288-24.064 26.4192 0 14.6432 12.288 26.4192 24.064 26.4192h222.8224l-58.0608 62.7712c-9.9328 9.9328-9.9328 26.4192 0 36.352 4.7104 4.7104 12.288 7.0656 16.9984 7.0656 7.0656 0 12.288-2.3552 16.9984-7.0656l99.1232-106.7008 2.3552-2.3552s2.3552-2.3552 2.3552-4.7104c2.3552-2.3552 2.3552-7.0656 2.3552-9.9328 0-8.8064-2.3552-11.264-2.3552-13.6192z" p-id="9620" fill="#1296db"></path></svg>