<?xml version="1.0" standalone="no"?><!DOCTYPE svg PUBLIC "-//W3C//DTD SVG 1.1//EN" "http://www.w3.org/Graphics/SVG/1.1/DTD/svg11.dtd"><svg t="1504595804342" class="icon" style="" viewBox="0 0 1024 1024" version="1.1" xmlns="http://www.w3.org/2000/svg" p-id="9459" xmlns:xlink="http://www.w3.org/1999/xlink" width="200" height="200"><defs><style type="text/css"></style></defs><path d="M969.5 969.5H908v-13.7h47.8v-20.5h13.7v34.2z m-116 0h-81.9v-13.7h81.9v13.7z m-136.6 0H635v-13.7h81.9v13.7z m-136.6 0h-81.9v-13.7h81.9v13.7z m-136.6 0h-81.9v-13.7h81.9v13.7z m-136.6 0h-81.9v-13.7h81.9v13.7z m-136.6 0H88.6v-13.7h81.9v13.7zM68.1 935.4H54.5v-81.9h13.7v81.9z m901.4-54.6h-13.7v-81.9h13.7v81.9z m-901.4-82H54.5v-81.9h13.7v81.9z m901.4-54.6h-13.7v-81.9h13.7v81.9z m-901.4-82H54.5v-81.9h13.7v81.9z m901.4-54.6h-13.7v-81.9h13.7v81.9zM68.1 525.7H54.5v-81.9h13.7v81.9zM969.5 471h-13.7v-81.9h13.7V471zM68.1 389.1H54.5v-81.9h13.7v81.9z m901.4-54.7h-13.7v-81.9h13.7v81.9zM68.1 252.5H54.5v-81.9h13.7v81.9z m901.4-54.6h-13.7V116h13.7v81.9z m-901.4-82H54.5V54.5h88.8v13.7H68.1v47.7z m894.6-47.8h-81.9V54.5h81.9v13.6z m-136.6 0h-81.9V54.5h81.9v13.6z m-136.5 0h-81.9V54.5h81.9v13.6z m-136.6 0h-82V54.5h82v13.6z m-136.6 0h-81.9V54.5h81.9v13.6z m-136.6 0h-81.9V54.5h81.9v13.6zM692.3 523.2H523.2v169.1h-22.5V523.2h-169v-22.4h169V331.7h22.5v169.1h169.1v22.4z" fill="#dbdbdb" p-id="9460"></path></svg>