<?xml version="1.0" standalone="no"?><!DOCTYPE svg PUBLIC "-//W3C//DTD SVG 1.1//EN" "http://www.w3.org/Graphics/SVG/1.1/DTD/svg11.dtd"><svg t="1503643994784" class="icon" style="" viewBox="0 0 1024 1024" version="1.1" xmlns="http://www.w3.org/2000/svg" p-id="4991" xmlns:xlink="http://www.w3.org/1999/xlink" width="200" height="200"><defs><style type="text/css"></style></defs><path d="M553.568 512l270.112-270.112c11.488-11.488 11.488-30.08 0-41.568-11.488-11.488-30.08-11.488-41.568 0L512 470.432 241.888 200.352c-11.488-11.488-30.08-11.488-41.568 0-11.488 11.488-11.488 30.08 0 41.568L470.432 512l-270.112 270.112c-11.488 11.488-11.488 30.08 0 41.568 11.488 11.488 30.08 11.488 41.568 0L512 553.568l270.112 270.112c11.488 11.488 30.08 11.488 41.568 0 11.488-11.488 11.488-30.08 0-41.568L553.568 512z" p-id="4992" fill="#ccc"></path></svg>
