<?xml version="1.0" standalone="no"?><!DOCTYPE svg PUBLIC "-//W3C//DTD SVG 1.1//EN" "http://www.w3.org/Graphics/SVG/1.1/DTD/svg11.dtd"><svg t="1502809022483" class="icon" style="" viewBox="0 0 1024 1024" version="1.1" xmlns="http://www.w3.org/2000/svg" p-id="11929" xmlns:xlink="http://www.w3.org/1999/xlink" width="200" height="200"><defs><style type="text/css"></style></defs><path d="M858.180267 566.848l0 274.304q0 14.848-11.605333 25.728t-27.4432 10.88l-234.0864 0 0-219.456-156.0576 0 0 219.456-234.0864 0q-15.837867 0-27.4432-10.88t-11.605333-25.728l0-274.304q0-0.576 0.273067-1.728t0.273067-1.728l350.481067-270.848 350.481067 270.848q0.6144 1.152 0.6144 3.456zM994.167467 527.424l-37.819733 42.304q-4.846933 5.12-12.834133 6.272l-1.8432 0q-7.918933 0-12.834133-4.032l-421.819733-329.728-421.819733 329.728q-7.304533 4.544-14.609067 4.032-7.918933-1.152-12.834133-6.272l-37.819733-42.304q-4.846933-5.696-4.3008-13.44t6.690133-12.288l438.272-342.272q19.524267-14.848 46.353067-14.848t46.353067 14.848l148.753067 116.544 0-111.424q0-8 5.461333-13.12t13.994667-5.12l117.009067 0q8.533333 0 13.994667 5.12t5.461333 13.12l0 233.152 133.461333 104q6.075733 4.544 6.690133 12.288t-4.3008 13.44z" p-id="11930" fill="#38C790"></path></svg>