<?xml version="1.0" standalone="no"?><!DOCTYPE svg PUBLIC "-//W3C//DTD SVG 1.1//EN" "http://www.w3.org/Graphics/SVG/1.1/DTD/svg11.dtd"><svg t="1502811582231" class="icon" style="" viewBox="0 0 1024 1024" version="1.1" xmlns="http://www.w3.org/2000/svg" p-id="21616" xmlns:xlink="http://www.w3.org/1999/xlink" width="200" height="200"><defs><style type="text/css"></style></defs><path d="M64.276932 269.663696c0 113.923656 200.099341 206.27704 446.934099 206.27704s446.934099-92.353384 446.934099-206.27704S758.046812 63.386656 511.211031 63.386656 64.276932 155.74004 64.276932 269.663696z" fill="#6E6E6E" p-id="21617"></path><path d="M511.211031 565.327556c-192.525851 0-350.671685-55.007825-419.430698-130.642433-20.627806 27.503401-27.503401 48.131207-27.503401 75.634608 0 110.014626 199.401446 206.27704 446.934099 206.27704s446.935122-89.385796 446.935122-206.276016c0-27.503401-13.752212-48.131207-27.503401-75.634608-68.760037 75.634608-226.90587 130.641409-419.431721 130.641409z" fill="#6E6E6E" p-id="21618"></path><path d="M511.211031 812.860209c-192.525851 0-350.671685-55.006801-419.430698-130.642433-20.627806 20.627806-27.503401 48.131207-27.503401 75.634608 0 110.014626 199.401446 206.27704 446.934099 206.27704S958.146153 874.743628 958.146153 757.853407c0-27.503401-13.752212-48.131207-27.503401-75.634607-68.760037 75.634608-226.90587 130.641409-419.431721 130.641409z" fill="#6E6E6E" p-id="21619"></path></svg>