<?xml version="1.0" standalone="no"?><!DOCTYPE svg PUBLIC "-//W3C//DTD SVG 1.1//EN" "http://www.w3.org/Graphics/SVG/1.1/DTD/svg11.dtd"><svg t="1503628712967" class="icon" style="" viewBox="0 0 1024 1024" version="1.1" xmlns="http://www.w3.org/2000/svg" p-id="2395" xmlns:xlink="http://www.w3.org/1999/xlink" width="200" height="200"><defs><style type="text/css"></style></defs><path d="M528.896 184.32c104.96 0 220.672 111.616 220.672 233.984v27.648c0 119.808-111.104 233.984-220.672 233.984H475.648c-119.808-3.072-144.384 123.392-146.432 127.488-6.144-8.704-13.824-20.48-19.456-30.208-11.776-18.944-25.088-39.936-40.96-60.416-37.376-48.64-70.656-73.728-78.336-82.432s-99.84-71.68-92.672-188.928v-27.648c12.288-157.696 90.112-224.256 220.16-233.472h210.944m0-42.496H317.952c-145.92 0-263.68 123.904-263.68 276.992v27.648c0 175.616 121.344 209.408 184.32 304.128 34.304 45.056 59.904 98.304 78.848 110.592 6.144 4.096 11.264 5.632 15.872 5.632 41.984 0 33.792-143.872 141.824-143.872h53.248c145.408 0 263.68-123.904 263.68-276.992v-27.648c0.512-153.088-117.76-276.48-263.168-276.48z" fill="" p-id="2396"></path><path d="M423.424 595.456C327.68 595.456 249.856 532.48 249.856 455.68c0-10.24 8.192-18.944 18.944-18.944 10.24 0 24.064 8.192 24.064 18.944 0 37.376 55.808 96.768 131.072 96.768s131.072-48.128 131.072-96.768c0-10.24 13.312-18.944 24.064-18.944s18.944 8.192 18.944 18.944c-1.024 76.8-78.848 139.776-174.592 139.776zM768.512 440.832c3.584 9.216 6.144 34.304 8.192 44.032 75.264 20.48 116.224 62.464 117.248 139.264v17.92c3.072 67.072-39.936 101.888-49.664 112.128-6.144 6.144-26.624 22.016-50.688 53.248-10.24 13.312-29.696 42.496-36.352 56.832-1.536-2.56-19.968-82.432-97.28-80.384h-34.304c-50.688 0-91.136-27.136-116.224-76.8-13.312-4.608-40.96-5.12-52.736-11.776 19.456 76.288 91.136 132.096 169.984 132.096h34.816c69.632 0 65.024 89.088 91.648 93.184 23.04 3.072 44.032-51.2 66.56-80.384 40.448-61.44 119.296-82.944 119.296-196.608V624.64c-1.536-96.768-79.36-180.224-170.496-183.808z" fill="#555555" p-id="2397"></path></svg>
