<?xml version="1.0" standalone="no"?><!DOCTYPE svg PUBLIC "-//W3C//DTD SVG 1.1//EN" "http://www.w3.org/Graphics/SVG/1.1/DTD/svg11.dtd"><svg t="1503641692458" class="icon" style="" viewBox="0 0 1024 1024" version="1.1" xmlns="http://www.w3.org/2000/svg" p-id="4337" xmlns:xlink="http://www.w3.org/1999/xlink" width="200" height="200"><defs>
  <style type="text/css">
  </style></defs>
  <path d="M510.513136 805.784046c-0.313132 0-0.629333-0.029676-0.941442-0.029676-6.172583-0.313132-11.803837-3.599991-15.090697-8.773827-1.744737-2.62785-6.888897-8.773827-14.434757-17.975397-48.416709-59.020208-177.00025-215.758995-228.04788-375.383506-15.432481-48.272423-18.033725-154.880463 40.842197-235.537458 32.43983-44.442188 96.803743-97.433076 219.218794-97.433076 124.240629 0 189.175547 54.934147 221.757616 101.006462 55.475476 78.397534 56.219419 183.547363 33.440623 248.084215-45.214784 128.068817-147.935284 259.056104-238.537791 374.61091l-3.230578 4.14439C521.859555 803.097868 516.342912 805.784046 510.513136 805.784046zM512.059352 108.721167c-85.459371 0-148.880819 27.522844-188.494025 81.797981-47.872311 65.566298-49.472761 157.309792-35.325553 201.497177 48.816822 152.709007 178.575118 310.87633 221.217311 362.836749 0.313132 0.398066 0.655939 0.799202 0.972141 1.170662 85.799108-109.552092 179.687452-232.078683 220.930785-348.972996 19.636223-55.56348 19.064194-146.07696-28.608571-213.414601C662.909012 137.27448 598.744643 108.721167 512.059352 108.721167zM512 413.739069c-55.932893 0-101.462856-45.530986-101.462856-101.491509s45.530986-101.491509 101.462856-101.491509c55.93187 0 101.43318 45.530986 101.43318 101.491509S567.93187 413.739069 512 413.739069zM512 248.825089c-34.954093 0-63.391772 28.438703-63.391772 63.421448s28.437679 63.421448 63.391772 63.421448c34.95307 0 63.36312-28.438703 63.36312-63.421448S546.95307 248.825089 512 248.825089zM519.030114 880.494609c-160.994718 0-323.964416-37.525662-323.964416-109.265566 0-76.825736 173.886329-99.546204 227.190349-104.690364 10.316973-1.030469 19.720134 6.658653 20.779256 17.120936 0.997724 10.460236-6.6607 19.748786-17.120936 20.776186-136.246057 13.120832-192.778608 49.987484-192.778608 66.793242 0 24.180725 100.888781 71.197552 285.894356 71.197552 185.034227 0 285.98236-47.01785 285.98236-71.197552 0-18.519796-62.821791-57.676607-214.184127-68.651566-10.488889-0.769526-18.349927-9.889231-17.607006-20.349467 0.772596-10.460236 10.0591-18.461467 20.349467-17.603937 120.611985 8.773827 249.51275 41.35385 249.51275 106.60497C843.082534 842.967924 680.056554 880.494609 519.030114 880.494609zM512 953.348893c-216.643132 0-446.892143-59.564607-446.892143-169.914878 0-79.681784 128.584564-144.133701 327.567477-164.140361 10.744715-1.483794 19.805068 6.573719 20.835538 17.007349 1.056052 10.460236-6.573719 19.778462-17.007349 20.835538-190.522218 19.178805-293.325605 79.398328-293.325605 126.298498 0 62.365396 167.883615 131.844817 408.822083 131.844817 240.936421 0 408.824129-69.479421 408.824129-131.844817 0-47.27163-103.549378-107.664092-295.500131-126.498042-10.463306-1.000793-18.093077-10.31902-17.062608-20.779256 0.997724-10.488889 10.345626-18.464537 20.777209-17.062608 200.381773 19.635199 329.85252 84.142375 329.85252 164.339906C958.89112 893.784286 728.642109 953.348893 512 953.348893z" p-id="4338" fill="#666"></path></svg>
