<?xml version="1.0" standalone="no"?><!DOCTYPE svg PUBLIC "-//W3C//DTD SVG 1.1//EN"
  "http://www.w3.org/Graphics/SVG/1.1/DTD/svg11.dtd">
<svg t="1502523686775" class="icon" style="" viewBox="0 0 1024 1024" version="1.1" xmlns="http://www.w3.org/2000/svg"
     p-id="3750" xmlns:xlink="http://www.w3.org/1999/xlink" width="200" height="200">
  <defs>
    <style type="text/css"></style>
  </defs>
  <path
    d="M60.34846 941.709809c0-1.65264 0-3.052522 0-4.453429 0-15.314801-0.056282-30.630624 0.059352-45.944402 0.017396-2.364861 0.477884-4.852518 1.312902-7.063883 7.28287-19.277042 19.380396-35.249829 34.272571-49.238424 16.936741-15.909341 36.319184-28.266787 56.914244-38.811957 30.825053-15.781428 63.340607-27.080775 96.68197-36.120662 32.474622-8.80555 65.396429-15.448854 98.747002-19.937075 6.519484-0.876973 13.063527-1.577938 19.577894-2.492774 1.656733-0.232291 3.355421-0.74906 4.842285-1.5104 18.35709-9.405207 26.116821-25.7515 21.99699-46.073338-2.362814-11.653411-7.242961-22.270213-13.362332-32.355919-2.372024-3.910053-5.130857-7.583722-7.55814-11.462053-0.957815-1.530866-3.28686-2.530636-2.165316-5.132904 0.156566-0.363274-1.406023-1.566682-2.270716-2.258437-15.045671-12.039197-28.41312-25.740244-40.358173-40.838104-22.670326-28.653597-39.47506-60.560284-52.365648-94.630241-0.590448-1.560542-1.232061-3.101641-1.944282-4.88731-1.091868 0.740874-1.804089 1.196245-2.487657 1.691525-7.365758 5.338588-15.256472 6.016017-23.571858 2.597151-5.802146-2.385327-10.580986-6.223748-14.835893-10.751878-7.661494-8.154727-13.063527-17.718547-17.034978-28.086685-7.02909-18.348903-9.845229-37.275975-7.202029-56.864102 1.040702-7.711636 3.114944-15.119349 6.845918-21.999037 2.273786-4.193509 5.098111-7.949043 8.904811-10.886955 5.646604-4.358261 11.967566-5.91164 18.986423-4.484128 0.699941 0.14224 1.396813 0.306992 2.102894 0.411369 0.270153 0.039909 0.561795-0.060375 1.103124-0.130983 0.079818-0.592494 0.286526-1.255597 0.240477-1.901303-1.670036-23.588231-2.061962-47.186695-0.309038-70.78209 2.669806-35.929304 9.818623-70.820975 25.090445-103.686501 24.885783-53.55473 65.658396-89.645716 121.099079-109.394503 20.849864-7.427156 42.367947-11.946077 64.397682-14.002922 37.727253-3.52222 75.187423-1.843998 112.266923 6.172583 25.648147 5.545296 49.90869 14.683421 72.109318 28.885887 35.042097 22.416546 58.702983 53.937446 73.676 92.352361 9.038864 23.190165 14.362102 47.291073 17.409508 71.947636 1.880837 15.214517 2.75474 30.490431 3.199878 45.800116 0.045025 1.543146 0.00614 3.088338 0.00614 5.234211-4.656043-0.541329-8.852622-1.067308-13.057387-1.508353-5.148253-0.539282-10.045797-1.974981-14.97097-3.541663-26.166963-8.325619-52.967352-11.788487-80.421634-10.194176-49.180096 2.856048-91.368964 21.684882-127.005602 55.467289-11.181667 10.600429-20.1182 23.066345-28.603455 35.82902-14.745842 22.178115-26.508747 45.772486-33.271778 71.674413-4.076852 15.614629-6.008854 31.448246-4.999874 47.597041 0.089028 1.421372 0.01228 2.854001 0.01228 4.594645-4.606925 2.793626-7.145747 7.461949-8.504698 12.609179-1.929955 7.30743-3.744277 14.702863-4.779863 22.175045-1.13587 8.201799-1.403976 16.529465-1.87879 24.812105-0.102331 1.785669 0.151449 3.784186 0.877997 5.396917 18.652825 41.407062 43.23571 78.676897 76.874855 109.567441 3.791349 3.481288 7.788383 6.746658 11.80179 9.974166 11.027148 8.867972 20.34742 19.296485 28.080545 31.090089 2.481518 3.784186 4.220115 8.087189 6.011924 12.275581 0.75213 1.759063 0.759293 3.836375 1.187035 6.228865-4.186346 0.662079-7.956206 1.233084-11.716856 1.856277-43.191708 7.161097-85.362156 17.897625-125.363196 36.106336-18.171871 8.272407-35.352159 18.21485-50.644447 31.188326-8.889461 7.540743-16.767895 15.992229-23.14821 25.790386-4.727675 7.259334-8.074909 14.914688-9.378601 23.674189-3.199878 21.496593-6.971785 42.909276-10.527774 64.352657-0.209778 1.26583-0.542352 2.511193-0.809435 3.729951C309.338301 942.223508 68.941162 942.595992 60.34846 941.709809z"
    p-id="3751" fill="#F76476"></path>
  <path
    d="M504.204453 637.256772c-9.54847 5.928013-16.523325 5.533017-24.712845-1.437745-2.591011-2.205225-5.071506-4.724605-6.973832-7.52744-12.244882-18.036795-16.519232-37.83777-11.979846-59.22487 0.927115-4.368494 2.960425-8.707312 5.352915-12.511965 3.965312-6.305613 9.854439-9.403161 17.576307-7.879458 0.411369 0.080841 0.848321 0.047072 1.272993 0.046049 0.137123 0 0.275269-0.064468 0.743944-0.182149 0-1.01205 0.056282-2.113127-0.008186-3.207042-0.89437-15.013949-1.216711-30.02585-0.137123-45.050032 1.608637-22.38994 5.613858-44.269249 14.092973-65.148789 17.361413-42.753733 48.381917-70.736041 92.208075-84.673471 17.146519-5.453199 34.786271-8.176217 52.754504-8.711406 23.703865-0.705058 47.197952 0.87902 70.228481 6.952342 24.097838 6.354731 45.696762 17.268292 63.429635 35.126009 16.09149 16.204054 26.558889 35.70827 33.361829 57.30924 5.571902 17.693987 8.747221 35.874045 9.540284 54.371328 0.587378 13.707187 0.25992 27.454282 0.338714 41.183981 0.004093 0.692778 0 1.38658 0 2.405793 1.171686 0 2.128477 0.099261 3.058662-0.016373 6.271844-0.775666 11.17348 1.678222 15.090697 6.390547 3.267417 3.930519 5.350868 8.514931 6.398734 13.449313 4.675486 22.035876 0.508583 42.385343-12.507872 60.71992-2.582825 3.637854-6.269797 6.690376-9.954723 9.296737-4.92108 3.480264-10.539031 4.264117-16.318664 1.784646-0.509606-0.218988-1.066285-0.324388-1.963725-0.589424-0.711198 1.937119-1.403976 3.776-2.062985 5.627161-9.028631 25.396413-21.227464 49.075719-38.098713 70.213131-6.982018 8.748245-14.69877 16.792455-23.194258 24.092721-2.739391 2.353604-5.568832 4.439102-7.272637 8.006348-2.263553 4.738931-5.712095 8.896624-8.281617 13.509688-3.571339 6.411013-5.987365 13.264095-6.938016 20.614503-1.577938 12.199856 4.737908 23.687492 16.119119 28.503171 2.300392 0.973164 4.997827 1.083681 7.535627 1.409093 44.729737 5.747911 88.469937 15.359826 130.004913 33.477462 16.191774 7.062859 31.528064 15.642259 45.279253 26.840298 12.479219 10.162454 22.844288 22.014386 29.381168 36.935214 1.464351 3.342118 2.222621 6.684236 2.161223 10.360975-0.150426 9.157567-0.049119 18.320251-0.049119 27.480888 0 1.407046 0 2.815115 0 4.852518-197.664895 0-394.956284 0-592.607876 0-0.088004-1.728364-0.218988-3.125177-0.221034-4.520967-0.017396-9.875928-0.086981-19.75288 0.051165-29.627784 0.030699-2.226714 0.493234-4.565992 1.298576-6.643304 4.312212-11.107989 11.110035-20.603247 19.383466-29.091572 10.279111-10.546194 22.194488-18.916838 34.973536-26.104541 21.699208-12.204973 44.884256-20.75265 68.75492-27.51568 27.570939-7.810896 55.599296-13.376659 84.086094-16.5837 11.905144-1.340531 21.596877-12.239765 22.029736-24.753777 0.196475-5.67014-1.072425-11.08036-2.970658-16.365736-2.482541-6.912433-6.121418-13.214976-10.126638-19.342534-1.359974-2.080382-3.581572-3.682879-3.75758-6.517437-0.032746-0.528026-0.89744-1.051959-1.444908-1.49505-25.501814-20.626783-43.322691-46.957475-56.755632-76.524884-2.305509-5.074575-4.304026-10.289344-6.438643-15.441691C505.395582 640.2305 504.877789 638.920668 504.204453 637.256772z"
    p-id="3752" fill="#F76476"></path>
</svg>
