<?xml version="1.0" standalone="no"?><!DOCTYPE svg PUBLIC "-//W3C//DTD SVG 1.1//EN"
  "http://www.w3.org/Graphics/SVG/1.1/DTD/svg11.dtd">
<svg t="1502182653267" class="icon" style="" viewBox="0 0 1024 1024" version="1.1" xmlns="http://www.w3.org/2000/svg"
     p-id="3516" xmlns:xlink="http://www.w3.org/1999/xlink" width="200" height="200">
  <defs>
    <style type="text/css"></style>
  </defs>
  <path
    d="M630.193913 487.178685c44.674479-34.868135 73.535807-88.88847 73.535807-149.58383 0-104.904235-85.903485-190.263321-191.528128-190.263321-105.623619 0-191.528128 85.359087-191.528128 190.263321 0 60.694337 28.857235 114.714671 73.535807 149.58383-117.745704 46.739511-201.214744 160.980391-201.214744 294.367331l0 63.404052c0 17.536398 14.281261 31.718399 31.911804 31.718399l574.585407 0c17.635659 0 31.91385-14.182001 31.91385-31.718399l0-63.404052C831.404564 648.106888 747.935524 533.918195 630.193913 487.178685L630.193913 487.178685 630.193913 487.178685 630.193913 487.178685zM373.645932 337.344145c0-75.918064 62.135152-137.63673 138.555659-137.63673 76.416414 0 138.555659 61.717643 138.555659 137.63673 0 75.899644-62.139246 137.63673-138.555659 137.63673C435.781084 474.980875 373.645932 413.268348 373.645932 337.344145L373.645932 337.344145 373.645932 337.344145 373.645932 337.344145zM783.400247 824.63744L240.974283 824.63744l0-33.679054c0-148.559501 121.668037-269.437545 271.251867-269.437545 149.530618 0 271.175119 120.877021 271.175119 269.437545L783.40127 824.63744 783.400247 824.63744 783.400247 824.63744 783.400247 824.63744zM264.814248 516.580319l6.233981-1.487887c13.386892-4.448312 22.922059-16.120143 22.922059-29.827329 0-13.239536-8.91402-24.561395-21.552875-29.332049-34.177404-15.423271-56.227606-49.27424-56.227606-86.575798 0-42.268686 36.730553-77.880765 75.175143-90.224908 6.730285-20.638039 16.910135-39.73805 29.875424-56.624648 2.260483-3.722788 4.646833-7.374968 7.129374-10.951423-2.581802-0.12382-5.039783-0.76748-7.696286-0.76748-87.9941 0-159.615301 71.124897-159.615301 158.569482 0 40.135092 15.394618 77.761038 41.523719 106.371656C119.481232 518.493901 65.290005 604.02388 65.290005 700.785667l0 49.047066c0 17.536398 14.281261 31.713282 31.911804 31.713282l57.193607 0c0-21.727861 2.235924-35.659151 6.433526-56.151881l-40.405245 0 0-24.608467C120.423697 613.138468 179.729407 537.916253 264.814248 516.580319L264.814248 516.580319 264.814248 516.580319 264.814248 516.580319zM821.470307 475.728912c26.1291-28.610618 41.523719-66.236564 41.523719-106.371656 0-87.444585-71.598688-158.597111-159.615301-158.597111-2.656503 0-5.114484 0.648776-7.696286 0.771573 2.482541 3.576455 4.868891 7.228635 7.129374 10.951423 12.964266 16.887622 23.14514 35.986609 29.851888 56.625672 38.444591 12.340049 80.490196 47.957245 80.490196 90.223884 0 37.303604-22.078855 71.177086-56.227606 86.577844-12.642948 4.764514-21.559015 16.090467-21.559015 29.331026 0 13.709233 9.56382 25.381064 22.923082 29.824259l6.232958 1.49198c85.113493 21.35947 144.392598 96.55815 144.392598 184.228885l0 24.608467-45.744857 0c4.220115 20.49273 6.432503 34.424021 6.432503 56.151881l57.193607 0c17.659195 0 31.911804-14.176884 31.911804-31.713282l0-49.047066C958.76116 604.02388 904.57198 518.493901 821.470307 475.728912L821.470307 475.728912 821.470307 475.728912 821.470307 475.728912zM821.470307 475.728912"
    fill="#555555" p-id="3517"></path>
</svg>
