<?xml version="1.0" standalone="no"?><!DOCTYPE svg PUBLIC "-//W3C//DTD SVG 1.1//EN" "http://www.w3.org/Graphics/SVG/1.1/DTD/svg11.dtd"><svg t="1502811882045" class="icon" style="" viewBox="0 0 1024 1024" version="1.1" xmlns="http://www.w3.org/2000/svg" p-id="22537" xmlns:xlink="http://www.w3.org/1999/xlink" width="200" height="200"><defs><style type="text/css"></style></defs><path d="M900.220062 53.547323 789.354338 277.037292C695.469292 186.7264 536.528738 177.173662 536.528738 177.173662L610.758892 30.966154C613.819077 18.936123 624.236308 9.846154 637.227323 9.846154L878.026831 9.846154C893.392738 9.846154 905.844185 22.285785 905.844185 37.635938 905.844185 43.685415 903.508677 48.988554 900.220062 53.547323ZM903.416123 623.151262C903.416123 838.004185 729.048615 1012.186585 513.961354 1012.186585 298.874092 1012.186585 124.512492 838.004185 124.512492 623.151262 124.512492 408.288492 298.874092 234.112 513.961354 234.112 729.048615 234.112 903.416123 408.288492 903.416123 623.151262ZM696.388923 533.645785 590.272985 518.236554 542.808615 422.181415C526.564431 389.297231 501.049108 389.931323 485.12 422.181415L437.6576 518.236554 331.541662 533.645785C295.213292 538.913477 287.935015 563.3536 313.712246 588.453415L390.500431 663.223138 372.3776 768.799508C366.166646 804.946708 387.184246 819.408738 419.0464 802.678154L513.961354 752.827077 608.876308 802.678154C641.374523 819.743508 661.641846 804.241723 655.552985 768.799508L637.422277 663.223138 714.216369 588.453415C740.501662 562.857354 732.010338 538.811077 696.388923 533.645785ZM123.779938 53.553231C120.497231 48.988554 118.153846 43.685415 118.153846 37.635938 118.153846 22.285785 130.609231 9.846154 145.973169 9.846154L386.774646 9.846154C399.763692 9.846154 410.182892 18.936123 413.241108 30.966154L487.471262 177.173662C487.471262 177.173662 328.532677 186.7264 234.6496 277.037292L123.779938 53.553231Z" p-id="22538" fill="#38C790"></path></svg>