<?xml version="1.0" standalone="no"?><!DOCTYPE svg PUBLIC "-//W3C//DTD SVG 1.1//EN" "http://www.w3.org/Graphics/SVG/1.1/DTD/svg11.dtd"><svg t="1502812011236" class="icon" style="" viewBox="0 0 1024 1024" version="1.1" xmlns="http://www.w3.org/2000/svg" p-id="23440" xmlns:xlink="http://www.w3.org/1999/xlink" width="200" height="200"><defs><style type="text/css"></style></defs><path d="M960 848c0 61.845333-52.010667 112-116.16 112H177.770667l0.042666-0.234667C114.773333 958.549333 64 909.077333 64 848c0-22.186667 6.890667-42.709333 18.410667-60.096l-1.984-0.768C158.826667 681.130667 322.368 618.666667 512 618.666667c184.725333 0 344.938667 58.645333 425.578667 160.213333l-1.792 1.386667c14.976 18.858667 24.213333 42.154667 24.213333 67.733333zM512 554.666667c-117.824 0-213.333333-105.066667-213.333333-234.666667S394.176 85.333333 512 85.333333s213.333333 105.066667 213.333333 234.666667-95.509333 234.666667-213.333333 234.666667z" p-id="23441" fill="#38C790"></path></svg>